<svg width="196" height="196" viewBox="0 0 196 196" fill="none" xmlns="http://www.w3.org/2000/svg">
<rect x="8.16667" y="57.1667" width="179.667" height="130.667" rx="24.5" fill="white" stroke="#FF4081" stroke-width="16.3333"/>
<path d="M91.726 62.3948C94.6135 65.8597 99.7631 66.3279 103.228 63.4404C106.693 60.553 107.161 55.4034 104.274 51.9385L91.726 62.3948ZM50.8927 13.3948L91.726 62.3948L104.274 51.9385L63.4403 2.93845L50.8927 13.3948Z" fill="#FF4081"/>
<path d="M91.7264 51.9385C88.8389 55.4034 89.3071 60.553 92.772 63.4404C96.2369 66.3279 101.387 65.8597 104.274 62.3948L91.7264 51.9385ZM132.56 2.93845L91.7264 51.9385L104.274 62.3948L145.107 13.3948L132.56 2.93845Z" fill="#FF4081"/>
<path d="M126.583 129.573L89.8332 150.79C84.3887 153.933 77.5832 150.004 77.5832 143.718L77.5832 101.282C77.5832 94.9957 84.3887 91.0665 89.8332 94.2098L126.583 115.427C132.028 118.571 132.028 126.429 126.583 129.573Z" fill="white" stroke="#FF4081" stroke-width="16.3333"/>
</svg>
