<svg width="24" height="24" viewBox="0 0 24 24" fill="none" xmlns="http://www.w3.org/2000/svg">
<rect x="2" y="7" width="20" height="14" rx="3" fill="white" stroke="#FF4081" stroke-width="2"/>
<path d="M11.2 7.6C11.5314 8.04183 12.1582 8.13137 12.6 7.8C13.0418 7.46863 13.1314 6.84183 12.8 6.4L11.2 7.6ZM8.2 3.6L11.2 7.6L12.8 6.4L9.8 2.4L8.2 3.6Z" fill="#FF4081"/>
<path d="M11.2191 6.3753C10.8741 6.80657 10.944 7.43586 11.3753 7.78087C11.8066 8.12588 12.4359 8.05596 12.7809 7.6247L11.2191 6.3753ZM15.2191 1.3753L11.2191 6.3753L12.7809 7.6247L16.7809 2.6247L15.2191 1.3753Z" fill="#FF4081"/>
<path d="M15.5 14.866L11 17.4641C10.3333 17.849 9.5 17.3679 9.5 16.5981L9.5 11.4019C9.5 10.6321 10.3333 10.151 11 10.5359L15.5 13.134C16.1667 13.5189 16.1667 14.4811 15.5 14.866Z" fill="white" stroke="#FF4081" stroke-width="2"/>
</svg>
