<svg width="196" height="196" viewBox="0 0 196 196" fill="none" xmlns="http://www.w3.org/2000/svg">
<rect width="196" height="196" fill="#FF4081"/>
<path d="M154.879 172.636H41.1361C40.6344 172.638 40.1474 172.467 39.7582 172.15C39.3689 171.834 39.1015 171.392 39.0011 170.901L24.6292 90.4753C24.526 90.0356 24.5626 89.5745 24.7339 89.1565C24.9052 88.7385 25.2027 88.3845 25.5849 88.1437C25.9671 87.9029 26.415 87.7874 26.8659 87.8133C27.3169 87.8393 27.7486 88.0053 28.1007 88.2883L61.4701 117.796L96.2716 63.6061C96.4571 63.3111 96.7127 63.0665 97.0155 62.8939C97.3183 62.7213 97.6589 62.6261 98.0073 62.6168C98.3689 62.6195 98.7244 62.7112 99.0422 62.8838C99.3601 63.0563 99.6306 63.3044 99.8299 63.6061L134.545 117.796L168.036 88.2883C168.393 88.0435 168.817 87.9125 169.25 87.9125C169.684 87.9125 170.108 88.0435 170.465 88.2883C170.83 88.5233 171.116 88.8622 171.286 89.2613C171.457 89.6605 171.503 90.1015 171.42 90.5274L157.031 170.953C156.923 171.439 156.649 171.873 156.256 172.18C155.864 172.487 155.377 172.648 154.879 172.636Z" fill="white"/>
<path d="M114.333 40.8334C114.333 44.0649 113.375 47.2237 111.579 49.9103C109.783 52.5968 107.231 54.6903 104.245 55.9258C101.259 57.1613 97.9732 57.4832 94.8041 56.851C91.6351 56.2187 88.7247 54.6606 86.4415 52.3738C84.1582 50.087 82.6047 47.1744 81.9773 44.0043C81.3499 40.8343 81.6769 37.5494 82.917 34.5653C84.1571 31.5812 86.2546 29.032 88.9439 27.2404C91.6333 25.4487 94.7935 24.495 98.025 24.5C102.353 24.5067 106.501 26.2305 109.558 29.2929C112.616 32.3552 114.333 36.5059 114.333 40.8334Z" fill="white"/>
<path d="M187.833 73.5001C187.833 76.7305 186.875 79.8884 185.081 82.5744C183.286 85.2604 180.735 87.3539 177.75 88.5901C174.766 89.8264 171.482 90.1498 168.313 89.5196C165.145 88.8894 162.235 87.3337 159.951 85.0494C157.666 82.7652 156.111 79.8549 155.48 76.6865C154.85 73.5181 155.173 70.2341 156.41 67.2495C157.646 64.265 159.74 61.714 162.426 59.9193C165.112 58.1246 168.269 57.1667 171.5 57.1667C175.832 57.1667 179.986 58.8875 183.049 61.9506C186.112 65.0137 187.833 69.1682 187.833 73.5001Z" fill="white"/>
<path d="M40.8328 73.3971C40.8532 76.6319 39.9128 79.7997 38.1305 82.4993C36.3482 85.1988 33.8043 87.3083 30.8217 88.5603C27.839 89.8123 24.5517 90.1505 21.3766 89.532C18.2015 88.9134 15.2816 87.366 12.9871 85.0859C10.6925 82.8058 9.12659 79.8957 8.48798 76.7245C7.84937 73.5534 8.16671 70.2641 9.39986 67.2736C10.633 64.283 12.7264 61.7259 15.4146 59.9266C18.1028 58.1273 21.2649 57.1668 24.4997 57.1667C28.8138 57.1666 32.9526 58.8733 36.0127 61.9141C39.0729 64.955 40.8057 69.0831 40.8328 73.3971Z" fill="white"/>
<path d="M98.0112 144.613L87.4927 129.998L98.0112 115.384L108.512 129.998L98.0112 144.613Z" fill="#FF4081"/>
</svg>
