<svg width="24" height="24" viewBox="0 0 24 24" fill="none" xmlns="http://www.w3.org/2000/svg">
<g clip-path="url(#clip0_15416_5240)">
<path d="M22.8002 9.6L17.4545 15.456L12.0008 6V6.00152L11.9996 6L6.54712 15.456L1.2002 9.6L2.4002 22.8H21.6002L22.8002 9.6Z" fill="url(#paint0_linear_15416_5240)"/>
<path d="M1.2 9.60001C1.86274 9.60001 2.4 9.06275 2.4 8.40001C2.4 7.73727 1.86274 7.20001 1.2 7.20001C0.537258 7.20001 0 7.73727 0 8.40001C0 9.06275 0.537258 9.60001 1.2 9.60001Z" fill="#FF97BA"/>
<path d="M24.0001 8.40001C24.0001 8.63735 23.9297 8.86936 23.7979 9.0667C23.666 9.26404 23.4786 9.41784 23.2593 9.50867C23.04 9.59949 22.7988 9.62326 22.566 9.57695C22.3332 9.53065 22.1194 9.41637 21.9516 9.24854C21.7837 9.08072 21.6695 8.8669 21.6232 8.63412C21.5769 8.40134 21.6006 8.16006 21.6914 7.94079C21.7823 7.72152 21.9361 7.5341 22.1334 7.40225C22.3308 7.27039 22.5628 7.20001 22.8001 7.20001C23.1184 7.20001 23.4236 7.32644 23.6486 7.55149C23.8737 7.77653 24.0001 8.08175 24.0001 8.40001Z" fill="#FF97BA"/>
<path d="M14.4001 3.60001C14.4001 4.07469 14.2593 4.5387 13.9956 4.93338C13.7319 5.32806 13.3571 5.63567 12.9185 5.81732C12.48 5.99897 11.9974 6.0465 11.5319 5.9539C11.0663 5.86129 10.6387 5.63272 10.303 5.29707C9.9674 4.96143 9.73882 4.53378 9.64622 4.06823C9.55361 3.60267 9.60113 3.12011 9.78279 2.68157C9.96444 2.24303 10.2721 1.8682 10.6667 1.60448C11.0614 1.34077 11.5254 1.20001 12.0001 1.20001C12.6366 1.20001 13.2471 1.45286 13.6972 1.90295C14.1472 2.35304 14.4001 2.96349 14.4001 3.60001Z" fill="#FF97BA"/>
</g>
<defs>
<linearGradient id="paint0_linear_15416_5240" x1="12.0002" y1="6" x2="12.0002" y2="22.8" gradientUnits="userSpaceOnUse">
<stop stop-color="#FF97BA"/>
<stop offset="1" stop-color="#FF4081"/>
</linearGradient>
<clipPath id="clip0_15416_5240">
<rect width="24" height="24" rx="4" fill="white"/>
</clipPath>
</defs>
</svg>
