<svg width="24" height="24" viewBox="0 0 24 24" fill="none" xmlns="http://www.w3.org/2000/svg">
<rect width="24" height="24" rx="4" fill="#FF4081"/>
<path d="M21 10L16.5453 14.88L12.0005 7V7.00126L11.9995 7L7.45577 14.88L3 10L4 21H20L21 10Z" fill="white"/>
<path d="M3 10C3.55228 10 4 9.55228 4 9C4 8.44772 3.55228 8 3 8C2.44772 8 2 8.44772 2 9C2 9.55228 2.44772 10 3 10Z" fill="white"/>
<path d="M22 9C22 9.19778 21.9414 9.39112 21.8315 9.55557C21.7216 9.72002 21.5654 9.84819 21.3827 9.92388C21.2 9.99957 20.9989 10.0194 20.8049 9.98079C20.6109 9.9422 20.4327 9.84696 20.2929 9.70711C20.153 9.56726 20.0578 9.38907 20.0192 9.19509C19.9806 9.00111 20.0004 8.80004 20.0761 8.61732C20.1518 8.43459 20.28 8.27841 20.4444 8.16853C20.6089 8.05865 20.8022 8 21 8C21.2652 8 21.5196 8.10536 21.7071 8.2929C21.8946 8.48043 22 8.73478 22 9Z" fill="white"/>
<path d="M14 5C14 5.39556 13.8827 5.78224 13.6629 6.11114C13.4432 6.44004 13.1308 6.69638 12.7654 6.84776C12.3999 6.99913 11.9978 7.03874 11.6098 6.96157C11.2219 6.8844 10.8655 6.69392 10.5858 6.41422C10.3061 6.13451 10.1156 5.77814 10.0384 5.39018C9.96126 5.00222 10.0009 4.60008 10.1522 4.23463C10.3036 3.86918 10.56 3.55682 10.8889 3.33706C11.2178 3.1173 11.6044 3 12 3C12.5304 3 13.0391 3.21071 13.4142 3.58578C13.7893 3.96085 14 4.46957 14 5Z" fill="white"/>
</svg>
