<svg width="24" height="24" viewBox="0 0 24 24" fill="none" xmlns="http://www.w3.org/2000/svg">
<rect width="24" height="24" rx="12" fill="#FF4081"/>
<path d="M20 9.57143L16.0402 13.7543L12.0005 7V7.00108L11.9995 7L7.96069 13.7543L4 9.57143L4.88889 19H19.1111L20 9.57143Z" fill="white"/>
<path d="M4.00022 10.2222C4.49114 10.2222 4.88911 9.82427 4.88911 9.33335C4.88911 8.84243 4.49114 8.44446 4.00022 8.44446C3.5093 8.44446 3.11133 8.84243 3.11133 9.33335C3.11133 9.82427 3.5093 10.2222 4.00022 10.2222Z" fill="white"/>
<path d="M20.8891 9.33335C20.8891 9.50915 20.837 9.68101 20.7393 9.82719C20.6416 9.97336 20.5028 10.0873 20.3404 10.1546C20.178 10.2218 19.9992 10.2395 19.8268 10.2052C19.6544 10.1709 19.496 10.0862 19.3717 9.96189C19.2474 9.83757 19.1627 9.67919 19.1284 9.50676C19.0941 9.33433 19.1117 9.15561 19.179 8.99318C19.2463 8.83076 19.3602 8.69193 19.5064 8.59426C19.6526 8.49659 19.8244 8.44446 20.0002 8.44446C20.236 8.44446 20.4621 8.53811 20.6288 8.70481C20.7955 8.87151 20.8891 9.0976 20.8891 9.33335Z" fill="white"/>
<path d="M13.7777 5.77778C13.7777 6.12939 13.6735 6.4731 13.4781 6.76546C13.2828 7.05781 13.0051 7.28567 12.6803 7.42023C12.3554 7.55478 11.998 7.58999 11.6531 7.52139C11.3083 7.4528 10.9915 7.28349 10.7429 7.03486C10.4942 6.78623 10.3249 6.46946 10.2563 6.1246C10.1877 5.77975 10.2229 5.4223 10.3575 5.09745C10.492 4.7726 10.7199 4.49495 11.0123 4.29961C11.3046 4.10426 11.6483 4 11.9999 4C12.4714 4 12.9236 4.1873 13.257 4.5207C13.5904 4.85409 13.7777 5.30628 13.7777 5.77778Z" fill="white"/>
<path d="M11.9996 16.3527L10.764 17L10.9666 15.5639L10 14.5277L11.3615 14.2865L11.9996 13L12.6385 14.2865L14 14.5277L13.0334 15.5639L13.236 17L11.9996 16.3527Z" fill="#FF4081"/>
</svg>
