<svg width="24" height="24" viewBox="0 0 24 24" fill="none" xmlns="http://www.w3.org/2000/svg">
<path d="M21.4363 11.1805L19.7802 20.5099H4.22113L2.56558 11.1727L7.29981 13.9237L7.69825 14.1552L7.95376 13.7717L12.0051 7.69125L16.0933 13.7733L16.3501 14.1553L16.7474 13.923L21.4363 11.1805Z" fill="#FF4081" stroke="#FF4081" stroke-width="0.97999"/>
<path d="M13.4655 6C13.4655 6.28996 13.3795 6.57339 13.2184 6.81443C13.0572 7.05548 12.8282 7.24332 12.5603 7.35417C12.2924 7.46502 11.9976 7.49391 11.7133 7.43718C11.4289 7.38045 11.1678 7.24065 10.9629 7.03547C10.7581 6.83029 10.6187 6.56895 10.5624 6.28452C10.5061 6.00008 10.5354 5.70534 10.6467 5.4376C10.758 5.16986 10.9462 4.94113 11.1875 4.78037C11.4288 4.61961 11.7123 4.53404 12.0023 4.53449C12.3905 4.53509 12.7627 4.68976 13.0371 4.96453C13.3114 5.2393 13.4655 5.61172 13.4655 6Z" fill="#FF4081" stroke="#FF4081" stroke-width="1.06898"/>
<path d="M22.2571 9.5C22.2571 9.64977 22.2127 9.79614 22.1295 9.92063C22.0463 10.0451 21.9281 10.1422 21.7897 10.1995C21.6514 10.2568 21.4992 10.2718 21.3523 10.2426C21.2055 10.2133 21.0705 10.1412 20.9647 10.0354C20.8588 9.92946 20.7867 9.79456 20.7575 9.6477C20.7282 9.50082 20.7432 9.3486 20.8005 9.21027C20.8578 9.07194 20.9549 8.95369 21.0794 8.87049C21.2039 8.7873 21.3503 8.7429 21.5 8.7429C21.7008 8.7429 21.8934 8.82267 22.0354 8.96465C22.1773 9.10663 22.2571 9.2992 22.2571 9.5Z" fill="white" stroke="#FF4081" stroke-width="1.4858"/>
<path d="M3.25865 9.49522C3.25959 9.64549 3.21591 9.79263 3.13313 9.918C3.05036 10.0434 2.9322 10.1414 2.79364 10.1995C2.6551 10.2577 2.50241 10.2734 2.35493 10.2447C2.20746 10.2159 2.07183 10.1441 1.96525 10.0381C1.85867 9.93224 1.78593 9.79706 1.75627 9.64977C1.72661 9.50247 1.74135 9.34969 1.79862 9.21079C1.8559 9.07188 1.95314 8.95311 2.078 8.86953C2.20286 8.78596 2.34973 8.74134 2.5 8.74134C2.70038 8.74133 2.89261 8.8206 3.03476 8.96185C3.17689 9.10309 3.25738 9.29484 3.25865 9.49522Z" fill="white" stroke="#FF4081" stroke-width="1.48268"/>
<path d="M12.0017 17L10 14.5L12.0017 12L14 14.5L12.0017 17Z" fill="white"/>
<path d="M4.44278 16.7067L4.01851 15.005L3.59423 13.3033L5.24121 14.7002L4.44278 16.7067Z" fill="white"/>
<path d="M19.2248 16.7087L18.4244 14.7017L20.0734 13.3054L19.6491 15.007L19.2248 16.7087Z" fill="white"/>
</svg>
