<svg width="24" height="24" viewBox="0 0 24 24" fill="none" xmlns="http://www.w3.org/2000/svg">
<rect width="24" height="24" rx="4" fill="#FF4081"/>
<path d="M19.9647 20.1391H4.03707C3.97564 20.1394 3.91601 20.1184 3.86835 20.0796C3.82069 20.0409 3.78793 19.9868 3.77565 19.9266L2.01582 11.0786C2.00318 11.0248 2.00766 10.9683 2.02864 10.9171C2.04962 10.8659 2.08604 10.8226 2.13284 10.7931C2.17965 10.7636 2.23448 10.7495 2.28971 10.7527C2.34493 10.7558 2.39779 10.7762 2.4409 10.8108L7.52695 14.424L11.7884 7.78851C11.8111 7.75238 11.8424 7.72243 11.8794 7.70129C11.9165 7.68016 11.9582 7.6685 12.0009 7.66736C12.0452 7.6677 12.0887 7.67893 12.1276 7.70006C12.1665 7.72118 12.1997 7.75156 12.2241 7.78851L16.4748 14.424L21.5758 10.8108C21.6196 10.7808 21.6714 10.7648 21.7245 10.7648C21.7776 10.7648 21.8295 10.7808 21.8733 10.8108C21.918 10.8396 21.953 10.8811 21.9738 10.93C21.9947 10.9788 22.0004 11.0328 21.9902 11.085L20.2283 19.933C20.215 19.9925 20.1815 20.0456 20.1334 20.0832C20.0854 20.1208 20.0257 20.1406 19.9647 20.1391Z" fill="white"/>
<path d="M13.4985 6.64081C13.4985 6.93758 13.4105 7.22768 13.2456 7.47441C13.0807 7.72113 12.8463 7.91339 12.572 8.02685C12.2978 8.14031 11.9961 8.16988 11.7051 8.11182C11.414 8.05375 11.1467 7.91066 10.9371 7.70065C10.7274 7.49064 10.5847 7.22315 10.5271 6.93202C10.4695 6.6409 10.4995 6.33922 10.6134 6.06517C10.7273 5.79113 10.9199 5.55702 11.1669 5.39247C11.4138 5.22793 11.7041 5.14035 12.0008 5.14081C12.3983 5.14142 12.7792 5.29973 13.06 5.58097C13.3408 5.86221 13.4985 6.24339 13.4985 6.64081Z" fill="white"/>
<path d="M23.2246 10.0096C23.2246 10.3063 23.1366 10.5963 22.9718 10.8429C22.807 11.0896 22.5727 11.2819 22.2986 11.3954C22.0245 11.5089 21.723 11.5386 21.432 11.4808C21.141 11.4229 20.8737 11.28 20.664 11.0702C20.4542 10.8605 20.3113 10.5932 20.2534 10.3022C20.1956 10.0112 20.2253 9.70965 20.3388 9.43556C20.4523 9.16147 20.6446 8.9272 20.8913 8.76237C21.1379 8.59755 21.4279 8.50958 21.7246 8.50958C22.1224 8.50958 22.504 8.66762 22.7853 8.94892C23.0666 9.23023 23.2246 9.61176 23.2246 10.0096Z" fill="white"/>
<path d="M3.77536 10.0065C3.77723 10.3035 3.69087 10.5945 3.52719 10.8424C3.36351 11.0903 3.12989 11.284 2.85597 11.399C2.58205 11.514 2.28015 11.5451 1.98856 11.4883C1.69697 11.4314 1.42882 11.2893 1.21809 11.0799C1.00737 10.8705 0.863562 10.6033 0.804914 10.3121C0.746266 10.0208 0.775409 9.71875 0.888658 9.44411C1.00191 9.16947 1.19416 8.93464 1.44103 8.76939C1.68791 8.60415 1.9783 8.51594 2.27538 8.51593C2.67157 8.51592 3.05166 8.67266 3.3327 8.95192C3.61373 9.23119 3.77286 9.6103 3.77536 10.0065Z" fill="white"/>
<path d="M12.0014 17.7078L10.7134 15.9182L12.0014 14.1286L13.2872 15.9182L12.0014 17.7078Z" fill="#FF4081"/>
</svg>
